<?xml version="1.0" encoding="UTF-8" standalone="no"?>
<!DOCTYPE svg PUBLIC "-//W3C//DTD SVG 1.1//EN" "http://www.w3.org/Graphics/SVG/1.1/DTD/svg11.dtd">
<svg width="100%" height="100%" viewBox="0 0 726 799" version="1.1" xmlns="http://www.w3.org/2000/svg" xml:space="preserve"
     style="fill-rule:evenodd;clip-rule:evenodd;stroke-linejoin:round;stroke-miterlimit:2;">
    <g id="calendar">
        <clipPath id="_clip1">
            <rect id="calendar1" x="9" y="157.487" width="708" height="620.013"/>
        </clipPath>
        <g clip-path="url(#_clip1)">
            <path d="M717,119.06L717,727.94C717,755.293 694.793,777.5 667.44,777.5L58.56,777.5C31.207,777.5 9,755.293 9,727.94L9,119.06C9,91.707 31.207,69.5 58.56,69.5L667.44,69.5C694.793,69.5 717,91.707 717,119.06Z" style="fill:rgb(220,220,220);"/>
        </g>
        <g id="content">
            <g transform="matrix(1.03501,0,0,1.15008,-15.8374,-67.9628)">
                <path d="M653.915,437.774L653.915,658.74C653.915,679.864 634.858,697.014 611.385,697.014L446.271,697.014C422.798,697.014 403.741,679.864 403.741,658.74L403.741,437.774C403.741,416.65 422.798,399.5 446.271,399.5L611.385,399.5C634.858,399.5 653.915,416.65 653.915,437.774Z" style="fill:rgb(0,153,204);"/>
            </g>
            <g transform="matrix(1.03501,0,0,0.551155,-15.8374,-38.2886)">
                <path d="M653.915,482.804L653.915,613.71C653.915,659.687 634.038,697.014 609.554,697.014L448.101,697.014C423.618,697.014 403.741,659.687 403.741,613.71L403.741,482.804C403.741,436.827 423.618,399.5 448.101,399.5L609.554,399.5C634.038,399.5 653.915,436.827 653.915,482.804Z" style="fill:rgb(0,153,204);"/>
            </g>
            <g transform="matrix(1.03501,0,0,0.771292,-353.349,196.056)">
                <path d="M653.915,459.003L653.915,637.511C653.915,670.352 634.046,697.014 609.573,697.014L448.083,697.014C423.61,697.014 403.741,670.352 403.741,637.511L403.741,459.003C403.741,426.162 423.61,399.5 448.083,399.5L609.573,399.5C634.046,399.5 653.915,426.162 653.915,459.003Z" style="fill:rgb(0,153,204);"/>
            </g>
            <g transform="matrix(1.03501,0,0,0.94981,-353.349,-197.551)">
                <path d="M653.915,448.571L653.915,647.943C653.915,675.026 633.737,697.014 608.884,697.014L448.772,697.014C423.919,697.014 403.741,675.026 403.741,647.943L403.741,448.571C403.741,421.488 423.919,399.5 448.772,399.5L608.884,399.5C633.737,399.5 653.915,421.488 653.915,448.571Z" style="fill:rgb(179,201,27);"/>
            </g>
        </g>
        <clipPath id="_clip2">
            <rect id="edge" x="9" y="47.197" width="708" height="110.29"/>
        </clipPath>
        <g clip-path="url(#_clip2)">
            <path d="M717,154.46L717,692.54C717,739.431 678.931,777.5 632.04,777.5L93.96,777.5C47.069,777.5 9,739.431 9,692.54L9,154.46C9,107.569 47.069,69.5 93.96,69.5L632.04,69.5C678.931,69.5 717,107.569 717,154.46Z" style="fill:rgb(198,40,40);"/>
        </g>
        <g id="binding">
            <g transform="matrix(1.10249,0,0,1.01273,-24.694,0.987374)">
                <path d="M247.084,50.398L247.084,91.646C247.084,107.595 235.189,120.544 220.538,120.544C205.888,120.544 193.993,107.595 193.993,91.646L193.993,50.398C193.993,34.449 205.888,21.5 220.538,21.5C235.189,21.5 247.084,34.449 247.084,50.398Z" style="fill:rgb(220,220,220);"/>
            </g>
            <g transform="matrix(1.10249,0,0,1.01273,264.342,0.987374)">
                <path d="M247.084,50.398L247.084,91.646C247.084,107.595 235.189,120.544 220.538,120.544C205.888,120.544 193.993,107.595 193.993,91.646L193.993,50.398C193.993,34.449 205.888,21.5 220.538,21.5C235.189,21.5 247.084,34.449 247.084,50.398Z" style="fill:rgb(220,220,220);"/>
            </g>
        </g>
    </g>
</svg>
